<svg xmlns="http://www.w3.org/2000/svg" aria-hidden="true" style="position:absolute;width:0;height:0;overflow:hidden">
  <defs>
    <symbol id="burger-green" viewBox="0 0 39 32">
      <path fill="none" stroke="#59b17a" stroke-linecap="round" stroke-linejoin="round" stroke-width="2.462" d="M34.877 16.255H5.339m29.538-6.4H5.339m29.538 12.8H5.339" style="stroke:var(--color1, #59b17a)"/>
    </symbol>
    <symbol id="burger" viewBox="0 0 39 32">
      <path fill="none" stroke-linecap="round" stroke-linejoin="round" stroke-width="2.462" d="M34.877 16.255H5.339m29.538-6.4H5.339m29.538 12.8H5.339"/>
    </symbol>
    <symbol id="close" viewBox="0 0 32 32">
      <path stroke-linecap="round" stroke-linejoin="round" stroke-width="2.667" d="M24 8 8 24M8 8l16 16"/>
    </symbol>
    <symbol id="dots" viewBox="0 0 120 32">
      <path d="M14.614 25.08c-3.106 0-5.776-1.098-8.011-3.295-2.235-2.235-3.352-4.924-3.352-8.068 0-3.106 1.117-5.758 3.352-7.955 2.235-2.235 4.905-3.352 8.011-3.352s5.777 1.117 8.011 3.352c2.235 2.197 3.352 4.848 3.352 7.955 0 2.083-.53 3.996-1.591 5.739-1.023 1.705-2.386 3.068-4.091 4.091s-3.598 1.534-5.682 1.534zm45.312 0c-3.106 0-5.777-1.098-8.011-3.295-2.235-2.235-3.352-4.924-3.352-8.068 0-3.106 1.117-5.758 3.352-7.955C54.15 3.527 56.82 2.41 59.926 2.41s5.776 1.117 8.011 3.352c2.235 2.197 3.352 4.848 3.352 7.955 0 2.083-.53 3.996-1.591 5.739-1.023 1.705-2.386 3.068-4.091 4.091s-3.598 1.534-5.682 1.534zm45.312 0c-3.106 0-5.776-1.098-8.011-3.295-2.234-2.235-3.352-4.924-3.352-8.068 0-3.106 1.118-5.758 3.352-7.955 2.235-2.235 4.906-3.352 8.011-3.352s5.777 1.117 8.011 3.352c2.235 2.197 3.353 4.848 3.353 7.955 0 2.083-.53 3.996-1.591 5.739-1.022 1.705-2.386 3.068-4.09 4.091s-3.599 1.534-5.682 1.534z"/>
    </symbol>
    <symbol id="facebook" viewBox="0 0 32 32">
      <path fill="#f7f8fa" d="M19.518 4.64h.96v3.6h-1.2c-.48 0-.96 0-1.2.24s-.24.48-.24 1.04v1.28h2.64v3.04h-2.64v13.2h-4.08V13.76h-2.16v-3.04h2.16V9.68c0-1.76.24-3.04.72-3.6.72-1.04 2.16-1.52 4.32-1.52.24.08.48.08.72.08z" opacity=".8" style="fill:var(--color3, #f7f8fa)"/>
    </symbol>
    <symbol id="filter" viewBox="0 0 32 32">
      <path fill="none" stroke="#fff" stroke-linecap="round" stroke-linejoin="round" stroke-width="3.429" d="M29.327 4H2.66l10.667 12.613v8.72L18.66 28V16.613L29.327 4z" style="stroke:var(--color2, #fff)"/>
    </symbol>
    <symbol id="instagram" viewBox="0 0 32 32">
      <path fill="#f7f8fa" d="M28.718 10.756a9.264 9.264 0 0 0-.596-3.145 6.547 6.547 0 0 0-3.743-3.737 9.42 9.42 0 0 0-3.108-.596c-1.368-.061-1.801-.078-5.273-.078s-3.916 0-5.274.078a9.418 9.418 0 0 0-3.106.596 6.541 6.541 0 0 0-3.743 3.737 9.288 9.288 0 0 0-.596 3.101c-.061 1.367-.08 1.8-.08 5.265s0 3.909.08 5.265a9.335 9.335 0 0 0 .596 3.104 6.548 6.548 0 0 0 3.744 3.735 9.37 9.37 0 0 0 3.106.639c1.369.061 1.803.079 5.274.079s3.916 0 5.274-.079a9.362 9.362 0 0 0 3.108-.595 6.555 6.555 0 0 0 3.743-3.737 9.35 9.35 0 0 0 .596-3.104c.061-1.365.08-1.798.08-5.265-.003-3.466-.003-3.906-.082-5.264zM15.991 22.531c-3.631 0-6.572-2.936-6.572-6.561s2.941-6.561 6.572-6.561c3.628 0 6.572 2.936 6.572 6.561s-2.944 6.561-6.572 6.561zm6.834-11.835a1.53 1.53 0 1 1 0-3.06 1.53 1.53 0 1 1 0 3.06z" opacity=".8" style="fill:var(--color3, #f7f8fa)"/>
      <path fill="#f7f8fa" d="M15.991 19.976a4.004 4.004 0 1 0 0-8.009 4.004 4.004 0 0 0 0 8.009z" opacity=".8" style="fill:var(--color3, #f7f8fa)"/>
    </symbol>
    <symbol id="left" viewBox="0 0 32 32">
      <path d="M14.133 16.946a1.334 1.334 0 0 1 0-1.894l6.12-6.107a1.334 1.334 0 1 0-1.88-1.894l-6.12 6.12a4.001 4.001 0 0 0 0 5.654l6.12 6.12a1.336 1.336 0 0 0 1.88-1.894l-6.12-6.107z"/>
    </symbol>
    <symbol id="lightning" viewBox="0 0 30 32">
      <path fill="none" stroke="#59b17a" stroke-linecap="round" stroke-linejoin="round" stroke-width="2.286" d="M16.508 3.302 5.198 16.874c-.443.532-.664.797-.668 1.022a.633.633 0 0 0 .236.503c.175.141.521.141 1.212.141h9.26l-1.27 10.159 11.31-13.572c.443-.531.664-.797.668-1.022a.633.633 0 0 0-.236-.503c-.175-.141-.521-.141-1.212-.141h-9.26l1.27-10.159z" style="stroke:var(--color1, #59b17a)"/>
    </symbol>
    <symbol id="logo" viewBox="0 0 32 32">
      <path d="M0 0h32v32H0V0z" style="fill:var(--color4, #000)"/>
      <path fill="#59b17a" d="M0 0h32v32H0V0z" style="fill:var(--color1, #59b17a)"/>
    </symbol>
    <symbol id="logo-white" viewBox="0 0 32 32">
      <path d="M0 0h32v32H0V0z" style="fill:var(--color4, #000)"/>
      <path fill="#fff" d="M0 0h32v32H0V0z" style="fill:var(--color2, #fff)"/>
    </symbol>
    <symbol id="map" viewBox="0 0 32 32">
      <path fill="none" stroke="#59b17a" stroke-linecap="round" stroke-linejoin="round" stroke-width="2.667" d="M28 13.333c0 9.333-12 17.333-12 17.333s-12-8-12-17.333a12.003 12.003 0 0 1 12-12 12.003 12.003 0 0 1 12 12z" style="stroke:var(--color1, #59b17a)"/>
      <path fill="none" stroke="#59b17a" stroke-linecap="round" stroke-linejoin="round" stroke-width="2.667" d="M16 17.333a4 4 0 1 0 0-8 4 4 0 0 0 0 8z" style="stroke:var(--color1, #59b17a)"/>
    </symbol>
    <symbol id="minus" viewBox="0 0 32 32">
      <path fill="none" stroke="#59b17a" stroke-linecap="round" stroke-linejoin="round" stroke-width="2.88" d="M6.662 16h18.667" style="stroke:var(--color1, #59b17a)"/>
    </symbol>
    <symbol id="nav-horyzontal" viewBox="0 0 239 32">
      <path fill="#fff" d="M0 16C0 7.163 7.163 0 16 0h34.783c6.88 0 12.745 4.342 15.006 10.435h2.685C70.735 4.342 76.6 0 83.48 0h61.217c6.879 0 12.745 4.342 15.006 10.435h2.684C164.648 4.342 170.514 0 177.393 0h45.913c8.837 0 16 7.163 16 16s-7.163 16-16 16h-45.913c-7.139 0-13.185-4.675-15.245-11.13h-2.205c-2.06 6.455-8.106 11.13-15.245 11.13H83.481c-7.139 0-13.185-4.675-15.245-11.13h-2.205C63.971 27.325 57.924 32 50.786 32H16.003c-8.837 0-16-7.163-16-16z" style="fill:var(--color2, #fff)"/>
      <path fill="#f1f1f1" d="m65.788 10.435-.753.279.194.524h.559v-.803zm2.685 0v.803h.559l.194-.524-.753-.279zm91.229 0-.753.279.194.524h.559v-.803zm2.683 0v.803h.559l.194-.524-.753-.279zm-.239 10.435.765-.244-.179-.559h-.586v.803zm-2.205 0v-.803h-.586l-.179.559.765.244zm-91.708 0 .765-.244-.178-.559h-.587v.803zm-2.205 0v-.803h-.587l-.178.559.765.244zM16-.803C6.72-.803-.803 6.72-.803 16H.804C.804 7.607 7.608.803 16.001.803V-.804zm34.783 0H16V.804h34.783V-.803zm15.758 10.958C64.167 3.757 58.008-.804 50.782-.804V.803c6.533 0 12.105 4.123 14.252 9.911l1.506-.559zm1.932-.524h-2.685v1.607h2.685V9.631zM83.478-.803c-7.226 0-13.385 4.561-15.759 10.959l1.506.559C71.372 4.927 76.944.804 83.477.804V-.803zm61.218 0H83.479V.804h61.217V-.803zm15.758 10.958C158.08 3.757 151.922-.804 144.695-.804V.803c6.533 0 12.105 4.123 14.253 9.911l1.506-.559zm-.752 1.083h2.684V9.631h-2.684v1.607zm3.437-.524c2.147-5.788 7.72-9.911 14.253-9.911V-.804c-7.226 0-13.385 4.561-15.759 10.959l1.506.559zM177.391.803h45.913V-.804h-45.913V.803zm45.913 0c8.393 0 15.197 6.804 15.197 15.197h1.607c0-9.28-7.523-16.803-16.803-16.803V.804zM238.501 16c0 8.393-6.803 15.197-15.197 15.197v1.607c9.28 0 16.803-7.523 16.803-16.803H238.5zm-15.197 15.197h-45.913v1.607h45.913v-1.607zm-45.913 0c-6.779 0-12.523-4.439-14.48-10.571l-1.531.488c2.163 6.779 8.513 11.69 16.011 11.69v-1.607zm-15.245-11.131h-2.205v1.607h2.205v-1.607zm-17.45 12.737c7.498 0 13.848-4.911 16.011-11.69l-1.531-.488c-1.957 6.132-7.701 10.571-14.48 10.571v1.607zm-61.218 0h61.217v-1.607H83.478v1.607zM67.467 21.114c2.163 6.779 8.512 11.69 16.011 11.69v-1.607c-6.779 0-12.523-4.439-14.48-10.571l-1.531.488zm-1.439.559h2.205v-1.607h-2.205v1.607zm-15.245 11.13c7.498 0 13.847-4.911 16.011-11.69l-1.531-.488c-1.957 6.132-7.701 10.571-14.48 10.571v1.607zm-34.783 0h34.783v-1.607H16v1.607zM-.803 16c0 9.28 7.523 16.803 16.803 16.803v-1.607C7.607 31.196.803 24.392.803 15.999H-.804z" style="fill:var(--color5, #f1f1f1)"/>
    </symbol>
    <symbol id="nav-vertical" viewBox="0 0 30 32">
      <path fill="#fff" d="M4.282 5.183A5.183 5.183 0 0 1 9.465 0h11.268a5.183 5.183 0 1 1 0 10.366h-3.944v.451h8.225a5.183 5.183 0 1 1 0 10.366h-8.113v.451h5.634a5.182 5.182 0 1 1 0 10.366H7.662a5.182 5.182 0 1 1 0-10.366h5.859v-.451H5.183a5.183 5.183 0 1 1 0-10.366h8.225v-.451H9.464a5.183 5.183 0 0 1-5.183-5.183z" style="fill:var(--color2, #fff)"/>
      <path fill="#f1f1f1" d="M16.789 10.366v-.26h-.26v.26h.26zm0 .451h-.26v.26h.26v-.26zm.112 10.366v-.26h-.26v.26h.26zm0 .451h-.26v.26h.26v-.26zm-3.38 0v.26h.26v-.26h-.26zm0-.451h.26v-.26h-.26v.26zm-.113-10.366v.26h.26v-.26h-.26zm0-.451h.26v-.26h-.26v.26zM9.465-.26a5.443 5.443 0 0 0-5.443 5.443h.521A4.923 4.923 0 0 1 9.466.26v-.52zm11.267 0H9.464v.52h11.268v-.52zm5.444 5.443A5.443 5.443 0 0 0 20.733-.26v.52a4.923 4.923 0 0 1 4.923 4.923h.521zm-5.444 5.443a5.443 5.443 0 0 0 5.443-5.443h-.521a4.923 4.923 0 0 1-4.923 4.923v.521zm-3.943 0h3.944v-.521h-3.944v.521zm.26.191v-.451h-.521v.451h.521zm7.965-.26h-8.225v.521h8.225v-.521zM30.457 16a5.443 5.443 0 0 0-5.443-5.443v.521a4.923 4.923 0 0 1 4.923 4.923h.521zm-5.443 5.443A5.443 5.443 0 0 0 30.457 16h-.521a4.923 4.923 0 0 1-4.923 4.923v.521zm-8.113 0h8.113v-.521h-8.113v.521zm-.26-.26v.451h.521v-.451h-.521zm.26.711h5.634v-.521h-5.634v.521zm5.634 0a4.923 4.923 0 0 1 4.923 4.923h.521a5.443 5.443 0 0 0-5.443-5.443v.521zm4.923 4.923a4.923 4.923 0 0 1-4.923 4.923v.521a5.443 5.443 0 0 0 5.443-5.443h-.521zm-4.923 4.923H7.662v.521h14.873v-.521zm-14.873 0a4.923 4.923 0 0 1-4.923-4.923h-.521a5.443 5.443 0 0 0 5.443 5.443v-.521zm-4.923-4.923a4.923 4.923 0 0 1 4.923-4.923v-.521a5.443 5.443 0 0 0-5.443 5.443h.521zm4.923-4.923h5.859v-.521H7.662v.521zm6.119-.26v-.451h-.521v.451h.521zm-8.598-.191h8.338v-.521H5.183v.521zM-.26 16a5.443 5.443 0 0 0 5.443 5.443v-.521A4.923 4.923 0 0 1 .26 15.999h-.52zm5.443-5.443A5.443 5.443 0 0 0-.26 16h.52a4.923 4.923 0 0 1 4.923-4.923v-.521zm8.225 0H5.183v.521h8.225v-.521zm-.26-.191v.451h.521v-.451h-.521zm-3.683.26h3.944v-.521H9.465v.521zM4.021 5.183a5.443 5.443 0 0 0 5.443 5.443v-.521a4.923 4.923 0 0 1-4.923-4.923H4.02z" style="fill:var(--color5, #f1f1f1)"/>
    </symbol>
    <symbol id="phone" viewBox="0 0 32 32">
      <path fill="none" stroke="#59b17a" stroke-linecap="round" stroke-linejoin="round" stroke-width="2.667" d="M29.33 22.56v4a2.67 2.67 0 0 1-1.812 2.537 2.672 2.672 0 0 1-1.094.13 26.398 26.398 0 0 1-11.507-4.093 25.999 25.999 0 0 1-8-8 26.382 26.382 0 0 1-4.093-11.56 2.657 2.657 0 0 1 .687-2.038 2.664 2.664 0 0 1 1.967-.868h4a2.67 2.67 0 0 1 2.667 2.294 17.16 17.16 0 0 0 .933 3.747 2.675 2.675 0 0 1-.6 2.814l-1.693 1.693a21.333 21.333 0 0 0 8 8l1.693-1.693a2.669 2.669 0 0 1 2.813-.6 17.16 17.16 0 0 0 3.747.933 2.665 2.665 0 0 1 2.293 2.707z" style="stroke:var(--color1, #59b17a)"/>
    </symbol>
    <symbol id="plus" viewBox="0 0 32 32">
      <path fill="none" stroke="#59b17a" stroke-linecap="round" stroke-linejoin="round" stroke-width="2.88" d="M16 6.667v18.667M6.662 16h18.667" style="stroke:var(--color1, #59b17a)"/>
    </symbol>
    <symbol id="right" viewBox="0 0 32 32">
      <path d="M17.867 16.946a1.334 1.334 0 0 0 0-1.894l-6.12-6.107a1.334 1.334 0 1 1 1.88-1.894l6.12 6.12a4.001 4.001 0 0 1 0 5.654l-6.12 6.12a1.337 1.337 0 0 1-2.172-.434 1.331 1.331 0 0 1 .292-1.46l6.12-6.107z"/>
    </symbol>
    <symbol id="search" viewBox="0 0 32 32">
      <path stroke-linecap="round" stroke-linejoin="round" stroke-width="3" d="M14.667 25.333c5.891 0 10.667-4.776 10.667-10.667S20.558 3.999 14.667 3.999 4 8.775 4 14.666s4.776 10.667 10.667 10.667zm13.336 2.666-5.8-5.8"/>
    </symbol>
    <symbol id="shop" viewBox="0 0 32 32">
      <path fill="none" stroke="#59b17a" stroke-linecap="round" stroke-linejoin="round" stroke-width="3" d="M12.005 29.333a1.333 1.333 0 1 0 0-2.667 1.333 1.333 0 0 0 0 2.667zm14.656 0a1.333 1.333 0 1 0 0-2.667 1.333 1.333 0 0 0 0 2.667zM1.328 1.334h5.333l3.573 17.853a2.671 2.671 0 0 0 2.666 2.147h12.96a2.661 2.661 0 0 0 2.666-2.147L30.659 8H7.992" style="stroke:var(--color1, #59b17a)"/>
    </symbol>
    <symbol id="star" viewBox="0 0 32 32">
      <path stroke-width="2.4" d="M12.4 9.394 16 2.572l3.6 6.822a2.2 2.2 0 0 0 1.571 1.141l7.601 1.315-5.376 5.532a2.2 2.2 0 0 0-.6 1.846l1.098 7.635-6.922-3.404a2.199 2.199 0 0 0-1.941 0l-6.922 3.404 1.098-7.635a2.2 2.2 0 0 0-.6-1.846L3.231 11.85l7.601-1.315a2.202 2.202 0 0 0 1.571-1.141zm16.635 2.185zM7.767 27.031z"/>
    </symbol>
    <symbol id="star-gray" viewBox="0 0 32 32">
      <path fill="#f1f1f1" stroke="#f1f1f1" stroke-width="2.4" d="M12.4 9.394 16 2.572l3.6 6.822a2.2 2.2 0 0 0 1.571 1.141l7.601 1.315-5.376 5.532a2.2 2.2 0 0 0-.6 1.846l1.098 7.635-6.922-3.404a2.199 2.199 0 0 0-1.941 0l-6.922 3.404 1.098-7.635a2.2 2.2 0 0 0-.6-1.846L3.231 11.85l7.601-1.315a2.202 2.202 0 0 0 1.571-1.141zm16.635 2.185zM7.767 27.031z" style="fill:var(--color5, #f1f1f1);stroke:var(--color5, #f1f1f1)"/>
    </symbol>
    <symbol id="youtube" viewBox="0 0 32 32">
      <path fill="#f7f8fa" d="M24.239 5.999c-1.36-.08-4.16-.16-8.4-.16h-.56c-4.08 0-6.8.08-8.16.24-1.84.16-3.12.64-3.84 1.28-.64.56-1.12 1.6-1.28 2.96-.08.88-.16 2.72-.16 5.52v.4c0 2.64.08 4.48.24 5.36.24 1.28.64 2.24 1.44 2.8.8.64 2.16 1.04 4.08 1.2 1.36.08 4.16.16 8.4.16h.56c4.08 0 6.8-.08 8.16-.24 1.84-.16 3.12-.64 3.84-1.28.64-.56 1.12-1.6 1.28-2.96.08-.88.16-2.72.16-5.52v-.4c0-2.64-.08-4.48-.24-5.36-.24-1.28-.64-2.24-1.44-2.8-.8-.64-2.16-1.04-4.08-1.2zm-3.12 9.84-8.8 5.28v-10.56l8.8 5.28z" opacity=".8" style="fill:var(--color3, #f7f8fa)"/>
    </symbol>
  </defs>
</svg>